<svg width="551" height="634" viewBox="0 0 551 634" fill="none" xmlns="http://www.w3.org/2000/svg">
<path d="M350.334 0.333496C376.323 0.333496 397.682 20.163 400.105 45.5181L400.334 50.3335V583.667C400.334 611.28 377.947 633.667 350.334 633.667C324.345 633.667 302.986 613.836 300.563 588.482L300.334 583.667V367H100.334V583.667C100.334 611.28 77.9483 633.667 50.334 633.667C24.344 633.667 2.98568 613.836 0.562866 588.482L0.333984 583.667V50.3335C0.333984 22.7192 22.7197 0.333496 50.334 0.333496C76.3239 0.333496 97.6823 20.163 100.105 45.5181L100.334 50.3335V267H300.334V50.3335C300.334 22.7192 322.721 0.333496 350.334 0.333496ZM550.337 367.623V583.667C550.337 602.077 535.414 617 517.004 617C498.594 617 483.671 602.077 483.671 583.667V429.2C468.571 437.937 449.081 433.54 439.271 418.823C429.057 403.503 433.197 382.81 448.514 372.597L497.997 339.61C520.367 324.693 550.337 340.733 550.337 367.623Z" fill="#C0C0C0"/>
</svg>
