<svg width="734" height="734" viewBox="0 0 734 734" fill="none" xmlns="http://www.w3.org/2000/svg">
<path fill-rule="evenodd" clip-rule="evenodd" d="M733.333 100C733.333 44.7717 688.563 0 633.333 0H100C44.7717 0 0 44.7717 0 100V633.333C0 688.563 44.7717 733.333 100 733.333H633.333C688.563 733.333 733.333 688.563 733.333 633.333V100ZM666.667 100C666.667 81.5907 651.743 66.6667 633.333 66.6667H100C81.5907 66.6667 66.6667 81.5907 66.6667 100V633.333C66.6667 651.743 81.5907 666.667 100 666.667H633.333C651.743 666.667 666.667 651.743 666.667 633.333V100Z" fill="#C0C0C0"/>
<path d="M126.888 550.703L270.737 286.982C283.371 263.82 316.63 263.82 329.263 286.982L434.883 480.62L471.06 417.313C483.857 394.92 516.143 394.92 528.94 417.313L604.837 550.13C617.533 572.35 601.487 600 575.893 600H156.151C130.849 600 114.772 572.917 126.888 550.703Z" fill="#C0C0C0"/>
<path d="M566.667 233.333C566.667 270.152 536.82 300 500 300C463.18 300 433.333 270.152 433.333 233.333C433.333 196.514 463.18 166.667 500 166.667C536.82 166.667 566.667 196.514 566.667 233.333Z" fill="#C0C0C0"/>
</svg>
